<svg width="24" height="24" viewBox="0 0 24 24" fill="none" xmlns="http://www.w3.org/2000/svg">
<rect width="24" height="24" fill="#E5E5E5"/>
<g id="Home" filter="url(#filter0_dd_1103_22027)">
<rect width="1200" height="4413" transform="translate(-617 -2991)" fill="white"/>
<g id="Group 13969">
</g>
<g id="Group 13991">
<g id="material-symbols:arrow-downward" clip-path="url(#clip0_1103_22027)">
<g id="Vector" filter="url(#filter1_d_1103_22027)">
<path d="M20 12L12 20L10.575 18.6L16.175 13L4 13L4 11L16.175 11L10.575 5.4L12 4L20 12Z" fill="black"/>
<path d="M11.9969 19.296L11.2852 18.5969L16.5286 13.3536L17.3821 12.5L16.175 12.5L4.5 12.5L4.5 11.5L16.175 11.5L17.3821 11.5L16.5286 10.6464L11.2852 5.40314L11.9969 4.70399L19.2929 12L11.9969 19.296Z" stroke="black"/>
</g>
<rect id="Rectangle 1663" x="11" y="-41" width="35" height="44" fill="#D9D9D9"/>
</g>
</g>
</g>
<defs>
<filter id="filter0_dd_1103_22027" x="-628" y="-2999" width="1222" height="4433" filterUnits="userSpaceOnUse" color-interpolation-filters="sRGB">
<feFlood flood-opacity="0" result="BackgroundImageFix"/>
<feColorMatrix in="SourceAlpha" type="matrix" values="0 0 0 0 0 0 0 0 0 0 0 0 0 0 0 0 0 0 127 0" result="hardAlpha"/>
<feOffset dy="2"/>
<feGaussianBlur stdDeviation="5"/>
<feColorMatrix type="matrix" values="0 0 0 0 0 0 0 0 0 0 0 0 0 0 0 0 0 0 0.1 0"/>
<feBlend mode="normal" in2="BackgroundImageFix" result="effect1_dropShadow_1103_22027"/>
<feColorMatrix in="SourceAlpha" type="matrix" values="0 0 0 0 0 0 0 0 0 0 0 0 0 0 0 0 0 0 127 0" result="hardAlpha"/>
<feOffset/>
<feGaussianBlur stdDeviation="1"/>
<feColorMatrix type="matrix" values="0 0 0 0 0 0 0 0 0 0 0 0 0 0 0 0 0 0 0.2 0"/>
<feBlend mode="normal" in2="effect1_dropShadow_1103_22027" result="effect2_dropShadow_1103_22027"/>
<feBlend mode="normal" in="SourceGraphic" in2="effect2_dropShadow_1103_22027" result="shape"/>
</filter>
<filter id="filter1_d_1103_22027" x="0" y="4" width="24" height="24" filterUnits="userSpaceOnUse" color-interpolation-filters="sRGB">
<feFlood flood-opacity="0" result="BackgroundImageFix"/>
<feColorMatrix in="SourceAlpha" type="matrix" values="0 0 0 0 0 0 0 0 0 0 0 0 0 0 0 0 0 0 127 0" result="hardAlpha"/>
<feOffset dy="4"/>
<feGaussianBlur stdDeviation="2"/>
<feComposite in2="hardAlpha" operator="out"/>
<feColorMatrix type="matrix" values="0 0 0 0 0 0 0 0 0 0 0 0 0 0 0 0 0 0 0.25 0"/>
<feBlend mode="normal" in2="BackgroundImageFix" result="effect1_dropShadow_1103_22027"/>
<feBlend mode="normal" in="SourceGraphic" in2="effect1_dropShadow_1103_22027" result="shape"/>
</filter>
<clipPath id="clip0_1103_22027">
<rect width="24" height="24" fill="white" transform="translate(0 24) rotate(-90)"/>
</clipPath>
</defs>
</svg>
