<svg width="20" height="21" viewBox="0 0 20 21" fill="none" xmlns="http://www.w3.org/2000/svg">
<g id="person">
<path id="Vector" d="M7.5 5.5C7.5 4.70435 7.81607 3.94129 8.37868 3.37868C8.94129 2.81607 9.70435 2.5 10.5 2.5C11.2956 2.5 12.0587 2.81607 12.6213 3.37868C13.1839 3.94129 13.5 4.70435 13.5 5.5C13.5 6.29565 13.1839 7.05871 12.6213 7.62132C12.0587 8.18393 11.2956 8.5 10.5 8.5C9.70435 8.5 8.94129 8.18393 8.37868 7.62132C7.81607 7.05871 7.5 6.29565 7.5 5.5ZM10.5 1.5C9.43913 1.5 8.42172 1.92143 7.67157 2.67157C6.92143 3.42172 6.5 4.43913 6.5 5.5C6.5 6.56087 6.92143 7.57828 7.67157 8.32843C8.42172 9.07857 9.43913 9.5 10.5 9.5C11.5609 9.5 12.5783 9.07857 13.3284 8.32843C14.0786 7.57828 14.5 6.56087 14.5 5.5C14.5 4.43913 14.0786 3.42172 13.3284 2.67157C12.5783 1.92143 11.5609 1.5 10.5 1.5ZM16.08 13.65C17.2 14.47 17.91 15.89 17.99 18.5H3.01C3.09 15.9 3.8 14.47 4.91 13.65C6.16 12.75 8 12.5 10.5 12.5C13 12.5 14.85 12.76 16.08 13.65ZM10.5 11.5C8 11.5 5.85 11.74 4.33 12.85C2.77 13.98 2 15.93 2 19V19.5H19V19C19 15.93 18.23 13.98 16.67 12.85C15.15 11.75 13 11.5 10.5 11.5Z" fill="black"/>
</g>
</svg>
